<svg width="45" height="27" viewBox="0 0 45 27" fill="none" xmlns="http://www.w3.org/2000/svg">
<path d="M22.5 0C16.5 0 12.75 3 11.25 9C13.5 6 16.125 4.875 19.125 5.625C20.8367 6.0529 22.0601 7.2947 23.4142 8.6692C25.6202 10.9084 28.1734 13.5 33.75 13.5C39.75 13.5 43.5 10.5 45 4.5C42.75 7.5 40.125 8.625 37.125 7.875C35.4133 7.4471 34.1899 6.2053 32.8357 4.8308C30.6297 2.59158 28.0766 0 22.5 0ZM11.25 13.5C5.25 13.5 1.5 16.5 0 22.5C2.25 19.5 4.875 18.375 7.875 19.125C9.5867 19.5529 10.8101 20.7947 12.1642 22.1693C14.3702 24.4084 16.9234 27 22.5 27C28.5 27 32.25 24 33.75 18C31.5 21 28.875 22.125 25.875 21.375C24.1633 20.9471 22.9399 19.7053 21.5858 18.3307C19.3798 16.0916 16.8266 13.5 11.25 13.5Z" fill="#E47412"/>
<path d="M19.5 2C10.7852 4.5 8.90365 17 15.4532 22.5M26.1184 5.5C18.5 8.5 16 18 22.9531 24" stroke="#E47412" stroke-width="3.2"/>
<path d="M29 23.5C34 19 34 11 30.5 7" stroke="#E47412" stroke-width="3" stroke-linecap="round"/>
<path d="M23 8.5L26 15.5M26 15.5L27.5 10.5M26 15.5L31.5 13.5M26 15.5L31.5 19M26 15.5L29 22M26 15.5L24 21.5M26 15.5L20 17.5M26 15.5L21 13L20 12.5L26 15.5Z" stroke="#E47412"/>
</svg>
