<svg width="551" height="139" viewBox="0 0 551 139" fill="none" xmlns="http://www.w3.org/2000/svg">
<path d="M106.5 8C79.1667 8 62.0833 21.6667 55.25 49C65.5 35.3333 77.4583 30.2083 91.125 33.625C98.9227 35.5743 104.496 41.2314 110.665 47.493C120.714 57.6938 132.345 69.5 157.75 69.5C185.083 69.5 202.167 55.8333 209 28.5C198.75 42.1667 186.792 47.2917 173.125 43.875C165.327 41.9257 159.754 36.2686 153.585 30.007C143.535 19.8061 131.905 8 106.5 8ZM55.25 69.5C27.9167 69.5 10.8333 83.1667 4 110.5C14.25 96.8333 26.2083 91.7083 39.875 95.125C47.6727 97.0743 53.246 102.731 59.4147 108.993C69.4642 119.194 81.0955 131 106.5 131C133.833 131 150.917 117.333 157.75 90C147.5 103.667 135.542 108.792 121.875 105.375C114.077 103.426 108.504 97.7686 102.335 91.5065C92.2858 81.3062 80.6545 69.5 55.25 69.5Z" fill="#E47412"/>
<path d="M92.8333 17.1111C53.1327 28.5 44.5611 85.4445 74.3978 110.5M122.984 33.0556C88.2778 46.7222 76.8889 90 108.564 117.333" stroke="#E47412" stroke-width="15"/>
<path d="M136.111 115.056C158.889 94.5556 158.889 58.1111 142.944 39.8889" stroke="#E47412" stroke-width="12" stroke-linecap="round"/>
<path d="M108.778 46.7222L122.444 78.6111M122.444 78.6111L129.278 55.8333M122.444 78.6111L147.5 69.5M122.444 78.6111L147.5 94.5556M122.444 78.6111L136.111 108.222M122.444 78.6111L113.333 105.944M122.444 78.6111L95.1111 87.7222M122.444 78.6111L99.6667 67.2222L95.1111 64.9444L122.444 78.6111Z" stroke="#E47412" stroke-width="6"/>
<path d="M246.386 113.727C241.682 113.727 237.648 113.08 234.284 111.784C230.943 110.511 228.284 108.773 226.307 106.568C224.33 104.364 223.045 101.886 222.455 99.1364L235.886 97.3295C236.295 98.375 236.943 99.3523 237.83 100.261C238.716 101.17 239.886 101.898 241.341 102.443C242.818 103.011 244.614 103.295 246.727 103.295C249.886 103.295 252.489 102.523 254.534 100.977C256.602 99.4545 257.636 96.8977 257.636 93.3068V83.7273H257.023C256.386 85.1818 255.432 86.5568 254.159 87.8523C252.886 89.1477 251.25 90.2045 249.25 91.0227C247.25 91.8409 244.864 92.25 242.091 92.25C238.159 92.25 234.58 91.3409 231.352 89.5227C228.148 87.6818 225.591 84.875 223.682 81.1023C221.795 77.3068 220.852 72.5114 220.852 66.7159C220.852 60.7841 221.818 55.8295 223.75 51.8523C225.682 47.875 228.25 44.8977 231.455 42.9205C234.682 40.9432 238.216 39.9545 242.057 39.9545C244.989 39.9545 247.443 40.4545 249.42 41.4545C251.398 42.4318 252.989 43.6591 254.193 45.1364C255.42 46.5909 256.364 48.0227 257.023 49.4318H257.568V40.6364H271.989V93.5114C271.989 97.9659 270.898 101.693 268.716 104.693C266.534 107.693 263.511 109.943 259.648 111.443C255.807 112.966 251.386 113.727 246.386 113.727ZM246.693 81.3409C249.034 81.3409 251.011 80.7614 252.625 79.6023C254.261 78.4205 255.511 76.7386 256.375 74.5568C257.261 72.3523 257.705 69.7159 257.705 66.6477C257.705 63.5795 257.273 60.9205 256.409 58.6705C255.545 56.3977 254.295 54.6364 252.659 53.3864C251.023 52.1364 249.034 51.5114 246.693 51.5114C244.307 51.5114 242.295 52.1591 240.659 53.4545C239.023 54.7273 237.784 56.5 236.943 58.7727C236.102 61.0455 235.682 63.6705 235.682 66.6477C235.682 69.6705 236.102 72.2841 236.943 74.4886C237.807 76.6705 239.045 78.3636 240.659 79.5682C242.295 80.75 244.307 81.3409 246.693 81.3409ZM298.477 93.9886C295.136 93.9886 292.159 93.4091 289.545 92.25C286.932 91.0682 284.864 89.3295 283.341 87.0341C281.841 84.7159 281.091 81.8295 281.091 78.375C281.091 75.4659 281.625 73.0227 282.693 71.0455C283.761 69.0682 285.216 67.4773 287.057 66.2727C288.898 65.0682 290.989 64.1591 293.33 63.5455C295.693 62.9318 298.17 62.5 300.761 62.25C303.807 61.9318 306.261 61.6364 308.125 61.3636C309.989 61.0682 311.341 60.6364 312.182 60.0682C313.023 59.5 313.443 58.6591 313.443 57.5455V57.3409C313.443 55.1818 312.761 53.5114 311.398 52.3295C310.057 51.1477 308.148 50.5568 305.67 50.5568C303.057 50.5568 300.977 51.1364 299.432 52.2955C297.886 53.4318 296.864 54.8636 296.364 56.5909L282.932 55.5C283.614 52.3182 284.955 49.5682 286.955 47.25C288.955 44.9091 291.534 43.1136 294.693 41.8636C297.875 40.5909 301.557 39.9545 305.739 39.9545C308.648 39.9545 311.432 40.2955 314.091 40.9773C316.773 41.6591 319.148 42.7159 321.216 44.1477C323.307 45.5795 324.955 47.4205 326.159 49.6705C327.364 51.8977 327.966 54.5682 327.966 57.6818V93H314.193V85.7386H313.784C312.943 87.375 311.818 88.8182 310.409 90.0682C309 91.2955 307.307 92.2614 305.33 92.9659C303.352 93.6477 301.068 93.9886 298.477 93.9886ZM302.636 83.9659C304.773 83.9659 306.659 83.5455 308.295 82.7045C309.932 81.8409 311.216 80.6818 312.148 79.2273C313.08 77.7727 313.545 76.125 313.545 74.2841V68.7273C313.091 69.0227 312.466 69.2955 311.67 69.5455C310.898 69.7727 310.023 69.9886 309.045 70.1932C308.068 70.375 307.091 70.5455 306.114 70.7045C305.136 70.8409 304.25 70.9659 303.455 71.0795C301.75 71.3295 300.261 71.7273 298.989 72.2727C297.716 72.8182 296.727 73.5568 296.023 74.4886C295.318 75.3977 294.966 76.5341 294.966 77.8977C294.966 79.875 295.682 81.3864 297.114 82.4318C298.568 83.4545 300.409 83.9659 302.636 83.9659ZM339.233 93V40.6364H353.312V49.7727H353.858C354.813 46.5227 356.415 44.0682 358.665 42.4091C360.915 40.7273 363.506 39.8864 366.438 39.8864C367.165 39.8864 367.949 39.9318 368.79 40.0227C369.631 40.1136 370.369 40.2386 371.006 40.3977V53.2841C370.324 53.0795 369.381 52.8977 368.176 52.7386C366.972 52.5795 365.869 52.5 364.869 52.5C362.733 52.5 360.824 52.9659 359.142 53.8977C357.483 54.8068 356.165 56.0795 355.188 57.7159C354.233 59.3523 353.756 61.2386 353.756 63.375V93H339.233ZM391.946 93.9886C388.605 93.9886 385.628 93.4091 383.014 92.25C380.401 91.0682 378.332 89.3295 376.81 87.0341C375.31 84.7159 374.56 81.8295 374.56 78.375C374.56 75.4659 375.094 73.0227 376.162 71.0455C377.23 69.0682 378.685 67.4773 380.526 66.2727C382.366 65.0682 384.457 64.1591 386.798 63.5455C389.162 62.9318 391.639 62.5 394.23 62.25C397.276 61.9318 399.73 61.6364 401.594 61.3636C403.457 61.0682 404.81 60.6364 405.651 60.0682C406.491 59.5 406.912 58.6591 406.912 57.5455V57.3409C406.912 55.1818 406.23 53.5114 404.866 52.3295C403.526 51.1477 401.616 50.5568 399.139 50.5568C396.526 50.5568 394.446 51.1364 392.901 52.2955C391.355 53.4318 390.332 54.8636 389.832 56.5909L376.401 55.5C377.082 52.3182 378.423 49.5682 380.423 47.25C382.423 44.9091 385.003 43.1136 388.162 41.8636C391.344 40.5909 395.026 39.9545 399.207 39.9545C402.116 39.9545 404.901 40.2955 407.56 40.9773C410.241 41.6591 412.616 42.7159 414.685 44.1477C416.776 45.5795 418.423 47.4205 419.628 49.6705C420.832 51.8977 421.435 54.5682 421.435 57.6818V93H407.662V85.7386H407.253C406.412 87.375 405.287 88.8182 403.878 90.0682C402.469 91.2955 400.776 92.2614 398.798 92.9659C396.821 93.6477 394.537 93.9886 391.946 93.9886ZM396.105 83.9659C398.241 83.9659 400.128 83.5455 401.764 82.7045C403.401 81.8409 404.685 80.6818 405.616 79.2273C406.548 77.7727 407.014 76.125 407.014 74.2841V68.7273C406.56 69.0227 405.935 69.2955 405.139 69.5455C404.366 69.7727 403.491 69.9886 402.514 70.1932C401.537 70.375 400.56 70.5455 399.582 70.7045C398.605 70.8409 397.719 70.9659 396.923 71.0795C395.219 71.3295 393.73 71.7273 392.457 72.2727C391.185 72.8182 390.196 73.5568 389.491 74.4886C388.787 75.3977 388.435 76.5341 388.435 77.8977C388.435 79.875 389.151 81.3864 390.582 82.4318C392.037 83.4545 393.878 83.9659 396.105 83.9659ZM456.293 113.727C451.588 113.727 447.554 113.08 444.19 111.784C440.849 110.511 438.19 108.773 436.213 106.568C434.236 104.364 432.952 101.886 432.361 99.1364L445.793 97.3295C446.202 98.375 446.849 99.3523 447.736 100.261C448.622 101.17 449.793 101.898 451.247 102.443C452.724 103.011 454.52 103.295 456.634 103.295C459.793 103.295 462.395 102.523 464.44 100.977C466.509 99.4545 467.543 96.8977 467.543 93.3068V83.7273H466.929C466.293 85.1818 465.338 86.5568 464.065 87.8523C462.793 89.1477 461.156 90.2045 459.156 91.0227C457.156 91.8409 454.77 92.25 451.997 92.25C448.065 92.25 444.486 91.3409 441.259 89.5227C438.054 87.6818 435.497 84.875 433.588 81.1023C431.702 77.3068 430.759 72.5114 430.759 66.7159C430.759 60.7841 431.724 55.8295 433.656 51.8523C435.588 47.875 438.156 44.8977 441.361 42.9205C444.588 40.9432 448.122 39.9545 451.963 39.9545C454.895 39.9545 457.349 40.4545 459.327 41.4545C461.304 42.4318 462.895 43.6591 464.099 45.1364C465.327 46.5909 466.27 48.0227 466.929 49.4318H467.474V40.6364H481.895V93.5114C481.895 97.9659 480.804 101.693 478.622 104.693C476.44 107.693 473.418 109.943 469.554 111.443C465.713 112.966 461.293 113.727 456.293 113.727ZM456.599 81.3409C458.94 81.3409 460.918 80.7614 462.531 79.6023C464.168 78.4205 465.418 76.7386 466.281 74.5568C467.168 72.3523 467.611 69.7159 467.611 66.6477C467.611 63.5795 467.179 60.9205 466.315 58.6705C465.452 56.3977 464.202 54.6364 462.565 53.3864C460.929 52.1364 458.94 51.5114 456.599 51.5114C454.213 51.5114 452.202 52.1591 450.565 53.4545C448.929 54.7273 447.69 56.5 446.849 58.7727C446.009 61.0455 445.588 63.6705 445.588 66.6477C445.588 69.6705 446.009 72.2841 446.849 74.4886C447.713 76.6705 448.952 78.3636 450.565 79.5682C452.202 80.75 454.213 81.3409 456.599 81.3409ZM517.315 94.0227C511.929 94.0227 507.293 92.9318 503.406 90.75C499.543 88.5455 496.565 85.4318 494.474 81.4091C492.384 77.3636 491.338 72.5795 491.338 67.0568C491.338 61.6705 492.384 56.9432 494.474 52.875C496.565 48.8068 499.509 45.6364 503.304 43.3636C507.122 41.0909 511.599 39.9545 516.736 39.9545C520.19 39.9545 523.406 40.5114 526.384 41.625C529.384 42.7159 531.997 44.3636 534.224 46.5682C536.474 48.7727 538.224 51.5455 539.474 54.8864C540.724 58.2045 541.349 62.0909 541.349 66.5455V70.5341H497.134V61.5341H527.679C527.679 59.4432 527.224 57.5909 526.315 55.9773C525.406 54.3636 524.145 53.1023 522.531 52.1932C520.94 51.2614 519.088 50.7955 516.974 50.7955C514.77 50.7955 512.815 51.3068 511.111 52.3295C509.429 53.3295 508.111 54.6818 507.156 56.3864C506.202 58.0682 505.713 59.9432 505.69 62.0114V70.5682C505.69 73.1591 506.168 75.3977 507.122 77.2841C508.099 79.1705 509.474 80.625 511.247 81.6477C513.02 82.6705 515.122 83.1818 517.554 83.1818C519.168 83.1818 520.645 82.9545 521.986 82.5C523.327 82.0455 524.474 81.3636 525.429 80.4545C526.384 79.5455 527.111 78.4318 527.611 77.1136L541.043 78C540.361 81.2273 538.963 84.0455 536.849 86.4545C534.759 88.8409 532.054 90.7045 528.736 92.0455C525.44 93.3636 521.634 94.0227 517.315 94.0227Z" fill="#111111"/>
</svg>
