<svg width="279" height="173" viewBox="0 0 279 173" fill="none" xmlns="http://www.w3.org/2000/svg">
<path d="M139.5 16C125.5 16 116.75 23 113.25 37C118.5 30 124.625 27.375 131.625 29.125C135.619 30.1234 138.474 33.021 141.633 36.2281C146.78 41.4529 152.738 47.5 165.75 47.5C179.75 47.5 188.5 40.5 192 26.5C186.75 33.5 180.625 36.125 173.625 34.375C169.631 33.3766 166.776 30.479 163.617 27.2719C158.469 22.047 152.512 16 139.5 16ZM113.25 47.5C99.25 47.5 90.5 54.5 87 68.5C92.25 61.5 98.375 58.875 105.375 60.625C109.369 61.6234 112.224 64.521 115.383 67.7284C120.53 72.9529 126.488 79 139.5 79C153.5 79 162.25 72 165.75 58C160.5 65 154.375 67.625 147.375 65.875C143.381 64.8766 140.526 61.979 137.367 58.7716C132.22 53.5471 126.262 47.5 113.25 47.5Z" fill="#E47412"/>
<path d="M132.5 20.6667C112.166 26.5 107.775 55.6667 123.057 68.5M147.943 28.8333C130.167 35.8333 124.333 58 140.557 72" stroke="#E47412" stroke-width="8"/>
<path d="M154.667 70.8333C166.333 60.3333 166.333 41.6667 158.167 32.3333" stroke="#E47412" stroke-width="7" stroke-linecap="round"/>
<path d="M140.667 35.8333L147.667 52.1667M147.667 52.1667L151.167 40.5M147.667 52.1667L160.5 47.5M147.667 52.1667L160.5 60.3333M147.667 52.1667L154.667 67.3333M147.667 52.1667L143 66.1667M147.667 52.1667L133.667 56.8333M147.667 52.1667L136 46.3333L133.667 45.1667L147.667 52.1667Z" stroke="#E47412" stroke-width="2"/>
<path d="M47.5909 142.818C44.4545 142.818 41.7652 142.386 39.5227 141.523C37.2955 140.674 35.5227 139.515 34.2045 138.045C32.8864 136.576 32.0303 134.924 31.6364 133.091L40.5909 131.886C40.8636 132.583 41.2955 133.235 41.8864 133.841C42.4773 134.447 43.2576 134.932 44.2273 135.295C45.2121 135.674 46.4091 135.864 47.8182 135.864C49.9242 135.864 51.6591 135.348 53.0227 134.318C54.4015 133.303 55.0909 131.598 55.0909 129.205V122.818H54.6818C54.2576 123.788 53.6212 124.705 52.7727 125.568C51.9242 126.432 50.8333 127.136 49.5 127.682C48.1667 128.227 46.5758 128.5 44.7273 128.5C42.1061 128.5 39.7197 127.894 37.5682 126.682C35.4318 125.455 33.7273 123.583 32.4545 121.068C31.197 118.538 30.5682 115.341 30.5682 111.477C30.5682 107.523 31.2121 104.22 32.5 101.568C33.7879 98.9167 35.5 96.9318 37.6364 95.6136C39.7879 94.2955 42.1439 93.6364 44.7045 93.6364C46.6591 93.6364 48.2955 93.9697 49.6136 94.6364C50.9318 95.2879 51.9924 96.1061 52.7955 97.0909C53.6136 98.0606 54.2424 99.0152 54.6818 99.9545H55.0455V94.0909H64.6591V129.341C64.6591 132.311 63.9318 134.795 62.4773 136.795C61.0227 138.795 59.0076 140.295 56.4318 141.295C53.8712 142.311 50.9242 142.818 47.5909 142.818ZM47.7955 121.227C49.3561 121.227 50.6742 120.841 51.75 120.068C52.8409 119.28 53.6742 118.159 54.25 116.705C54.8409 115.235 55.1364 113.477 55.1364 111.432C55.1364 109.386 54.8485 107.614 54.2727 106.114C53.697 104.598 52.8636 103.424 51.7727 102.591C50.6818 101.758 49.3561 101.341 47.7955 101.341C46.2045 101.341 44.8636 101.773 43.7727 102.636C42.6818 103.485 41.8561 104.667 41.2955 106.182C40.7348 107.697 40.4545 109.447 40.4545 111.432C40.4545 113.447 40.7348 115.189 41.2955 116.659C41.8712 118.114 42.697 119.242 43.7727 120.045C44.8636 120.833 46.2045 121.227 47.7955 121.227ZM82.3182 129.659C80.0909 129.659 78.1061 129.273 76.3636 128.5C74.6212 127.712 73.2424 126.553 72.2273 125.023C71.2273 123.477 70.7273 121.553 70.7273 119.25C70.7273 117.311 71.0833 115.682 71.7955 114.364C72.5076 113.045 73.4773 111.985 74.7045 111.182C75.9318 110.379 77.3258 109.773 78.8864 109.364C80.4621 108.955 82.1136 108.667 83.8409 108.5C85.8712 108.288 87.5076 108.091 88.75 107.909C89.9924 107.712 90.8939 107.424 91.4545 107.045C92.0152 106.667 92.2955 106.106 92.2955 105.364V105.227C92.2955 103.788 91.8409 102.674 90.9318 101.886C90.0379 101.098 88.7652 100.705 87.1136 100.705C85.3712 100.705 83.9848 101.091 82.9545 101.864C81.9242 102.621 81.2424 103.576 80.9091 104.727L71.9545 104C72.4091 101.879 73.303 100.045 74.6364 98.5C75.9697 96.9394 77.6894 95.7424 79.7955 94.9091C81.9167 94.0606 84.3712 93.6364 87.1591 93.6364C89.0985 93.6364 90.9545 93.8636 92.7273 94.3182C94.5152 94.7727 96.0985 95.4773 97.4773 96.4318C98.8712 97.3864 99.9697 98.6136 100.773 100.114C101.576 101.598 101.977 103.379 101.977 105.455V129H92.7955V124.159H92.5227C91.9621 125.25 91.2121 126.212 90.2727 127.045C89.3333 127.864 88.2045 128.508 86.8864 128.977C85.5682 129.432 84.0455 129.659 82.3182 129.659ZM85.0909 122.977C86.5152 122.977 87.7727 122.697 88.8636 122.136C89.9545 121.561 90.8106 120.788 91.4318 119.818C92.053 118.848 92.3636 117.75 92.3636 116.523V112.818C92.0606 113.015 91.6439 113.197 91.1136 113.364C90.5985 113.515 90.0152 113.659 89.3636 113.795C88.7121 113.917 88.0606 114.03 87.4091 114.136C86.7576 114.227 86.1667 114.311 85.6364 114.386C84.5 114.553 83.5076 114.818 82.6591 115.182C81.8106 115.545 81.1515 116.038 80.6818 116.659C80.2121 117.265 79.9773 118.023 79.9773 118.932C79.9773 120.25 80.4545 121.258 81.4091 121.955C82.3788 122.636 83.6061 122.977 85.0909 122.977ZM109.489 129V94.0909H118.875V100.182H119.239C119.875 98.0152 120.943 96.3788 122.443 95.2727C123.943 94.1515 125.67 93.5909 127.625 93.5909C128.11 93.5909 128.633 93.6212 129.193 93.6818C129.754 93.7424 130.246 93.8258 130.67 93.9318V102.523C130.216 102.386 129.587 102.265 128.784 102.159C127.981 102.053 127.246 102 126.58 102C125.155 102 123.883 102.311 122.761 102.932C121.655 103.538 120.777 104.386 120.125 105.477C119.489 106.568 119.17 107.826 119.17 109.25V129H109.489ZM144.631 129.659C142.403 129.659 140.419 129.273 138.676 128.5C136.934 127.712 135.555 126.553 134.54 125.023C133.54 123.477 133.04 121.553 133.04 119.25C133.04 117.311 133.396 115.682 134.108 114.364C134.82 113.045 135.79 111.985 137.017 111.182C138.244 110.379 139.638 109.773 141.199 109.364C142.775 108.955 144.426 108.667 146.153 108.5C148.184 108.288 149.82 108.091 151.062 107.909C152.305 107.712 153.206 107.424 153.767 107.045C154.328 106.667 154.608 106.106 154.608 105.364V105.227C154.608 103.788 154.153 102.674 153.244 101.886C152.35 101.098 151.078 100.705 149.426 100.705C147.684 100.705 146.297 101.091 145.267 101.864C144.237 102.621 143.555 103.576 143.222 104.727L134.267 104C134.722 101.879 135.616 100.045 136.949 98.5C138.282 96.9394 140.002 95.7424 142.108 94.9091C144.229 94.0606 146.684 93.6364 149.472 93.6364C151.411 93.6364 153.267 93.8636 155.04 94.3182C156.828 94.7727 158.411 95.4773 159.79 96.4318C161.184 97.3864 162.282 98.6136 163.085 100.114C163.888 101.598 164.29 103.379 164.29 105.455V129H155.108V124.159H154.835C154.275 125.25 153.525 126.212 152.585 127.045C151.646 127.864 150.517 128.508 149.199 128.977C147.881 129.432 146.358 129.659 144.631 129.659ZM147.403 122.977C148.828 122.977 150.085 122.697 151.176 122.136C152.267 121.561 153.123 120.788 153.744 119.818C154.366 118.848 154.676 117.75 154.676 116.523V112.818C154.373 113.015 153.956 113.197 153.426 113.364C152.911 113.515 152.328 113.659 151.676 113.795C151.025 113.917 150.373 114.03 149.722 114.136C149.07 114.227 148.479 114.311 147.949 114.386C146.813 114.553 145.82 114.818 144.972 115.182C144.123 115.545 143.464 116.038 142.994 116.659C142.525 117.265 142.29 118.023 142.29 118.932C142.29 120.25 142.767 121.258 143.722 121.955C144.691 122.636 145.919 122.977 147.403 122.977ZM187.528 142.818C184.392 142.818 181.703 142.386 179.46 141.523C177.233 140.674 175.46 139.515 174.142 138.045C172.824 136.576 171.968 134.924 171.574 133.091L180.528 131.886C180.801 132.583 181.233 133.235 181.824 133.841C182.415 134.447 183.195 134.932 184.165 135.295C185.15 135.674 186.347 135.864 187.756 135.864C189.862 135.864 191.597 135.348 192.96 134.318C194.339 133.303 195.028 131.598 195.028 129.205V122.818H194.619C194.195 123.788 193.559 124.705 192.71 125.568C191.862 126.432 190.771 127.136 189.438 127.682C188.104 128.227 186.513 128.5 184.665 128.5C182.044 128.5 179.657 127.894 177.506 126.682C175.369 125.455 173.665 123.583 172.392 121.068C171.134 118.538 170.506 115.341 170.506 111.477C170.506 107.523 171.15 104.22 172.438 101.568C173.725 98.9167 175.438 96.9318 177.574 95.6136C179.725 94.2955 182.081 93.6364 184.642 93.6364C186.597 93.6364 188.233 93.9697 189.551 94.6364C190.869 95.2879 191.93 96.1061 192.733 97.0909C193.551 98.0606 194.18 99.0152 194.619 99.9545H194.983V94.0909H204.597V129.341C204.597 132.311 203.869 134.795 202.415 136.795C200.96 138.795 198.945 140.295 196.369 141.295C193.809 142.311 190.862 142.818 187.528 142.818ZM187.733 121.227C189.294 121.227 190.612 120.841 191.688 120.068C192.778 119.28 193.612 118.159 194.188 116.705C194.778 115.235 195.074 113.477 195.074 111.432C195.074 109.386 194.786 107.614 194.21 106.114C193.634 104.598 192.801 103.424 191.71 102.591C190.619 101.758 189.294 101.341 187.733 101.341C186.142 101.341 184.801 101.773 183.71 102.636C182.619 103.485 181.794 104.667 181.233 106.182C180.672 107.697 180.392 109.447 180.392 111.432C180.392 113.447 180.672 115.189 181.233 116.659C181.809 118.114 182.634 119.242 183.71 120.045C184.801 120.833 186.142 121.227 187.733 121.227ZM228.21 129.682C224.619 129.682 221.528 128.955 218.938 127.5C216.362 126.03 214.377 123.955 212.983 121.273C211.589 118.576 210.892 115.386 210.892 111.705C210.892 108.114 211.589 104.962 212.983 102.25C214.377 99.5379 216.339 97.4242 218.869 95.9091C221.415 94.3939 224.4 93.6364 227.824 93.6364C230.127 93.6364 232.271 94.0076 234.256 94.75C236.256 95.4773 237.998 96.5758 239.483 98.0455C240.983 99.5152 242.15 101.364 242.983 103.591C243.816 105.803 244.233 108.394 244.233 111.364V114.023H214.756V108.023H235.119C235.119 106.629 234.816 105.394 234.21 104.318C233.604 103.242 232.763 102.402 231.688 101.795C230.627 101.174 229.392 100.864 227.983 100.864C226.513 100.864 225.21 101.205 224.074 101.886C222.953 102.553 222.074 103.455 221.438 104.591C220.801 105.712 220.475 106.962 220.46 108.341V114.045C220.46 115.773 220.778 117.265 221.415 118.523C222.066 119.78 222.983 120.75 224.165 121.432C225.347 122.114 226.748 122.455 228.369 122.455C229.445 122.455 230.43 122.303 231.324 122C232.218 121.697 232.983 121.242 233.619 120.636C234.256 120.03 234.741 119.288 235.074 118.409L244.028 119C243.574 121.152 242.642 123.03 241.233 124.636C239.839 126.227 238.036 127.47 235.824 128.364C233.627 129.242 231.089 129.682 228.21 129.682Z" fill="#111111"/>
</svg>
